# xmcd
#
# Track frame offsets:
#	150
#	29700
#	60921
#	91039
#	122337
#	152574
#	177347
#	200913
#	225559
#	248323
#
# Disc length: 3691 seconds
# Revision: 0
# Processed by: cddbd v1.5.2PL0 Copyright (c) Steve Scherf et al.
# Submitted via: dBpowerAMP V12.0
#
DISCID=710e690a
DTITLE=Franz Kafka - Der Prozess 1
DYEAR=2008
DGENRE=Hörbuch
TTITLE0=Verhaftung
TTITLE1=Verhaftung
TTITLE2=Verhaftung
TTITLE3=Verhaftung
TTITLE4=Verhaftung
TTITLE5=Gespräch mit Frau Grubach - Dann Fräulein Bürstner
TTITLE6=Gespräch mit Frau Grubach - Dann Fräulein Bürstner
TTITLE7=Gespräch mit Frau Grubach - Dann Fräulein Bürstner
TTITLE8=Gespräch mit Frau Grubach - Dann Fräulein Bürstner
TTITLE9=Gespräch mit Frau Grubach - Dann Fräulein Bürstner
EXTD=
EXTT0=
EXTT1=
EXTT2=
EXTT3=
EXTT4=
EXTT5=
EXTT6=
EXTT7=
EXTT8=
EXTT9=
PLAYORDER=
